<svg width="51" height="50" viewBox="0 0 51 50" fill="none" xmlns="http://www.w3.org/2000/svg">
<path d="M42.3928 12.665C42.3928 12.728 42.3978 12.791 42.3978 12.854C42.3978 17.54 42.3978 22.2263 42.3978 26.913C42.4004 27.0323 42.3595 27.1486 42.2828 27.24C36.5741 34.4973 30.8668 41.7557 25.1608 49.015C25.1418 49.04 25.1208 49.063 25.0898 49.1L24.3428 48.15C18.8588 41.176 13.3755 34.2027 7.8928 27.23C7.8638 27.192 7.8498 27.13 7.7868 27.13V12.674C7.8408 12.674 7.8708 12.713 7.9078 12.74C8.2268 12.97 8.5458 13.202 8.8648 13.433C8.8648 13.501 8.8748 13.569 8.8748 13.633C8.8748 17.941 8.8748 22.249 8.8748 26.557C8.86994 26.656 8.90201 26.7533 8.9648 26.83C10.0548 28.212 11.1441 29.5953 12.2328 30.98C12.2588 31.013 12.2768 31.059 12.3388 31.07V16C12.4058 16 12.4388 16.048 12.4788 16.077C13.4381 16.777 14.3975 17.477 15.3568 18.177C15.4044 18.2063 15.4431 18.248 15.4687 18.2978C15.4942 18.3475 15.5057 18.4032 15.5018 18.459C15.4958 23.953 15.4928 29.4497 15.4928 34.949C15.4896 35.0735 15.5315 35.195 15.6108 35.291C16.6568 36.615 17.7008 37.9403 18.7428 39.267C18.8048 39.347 18.8698 39.425 18.9578 39.533V21.021C18.9578 20.952 18.9578 20.884 18.9638 20.816L19.0918 20.905L20.0418 21.584C20.0418 21.652 20.0488 21.72 20.0488 21.784C20.0488 28.1073 20.0488 34.43 20.0488 40.752C20.0461 40.8666 20.0852 40.9782 20.1588 41.066C21.4695 42.7287 22.7788 44.3933 24.0868 46.06L25.0928 47.346C25.1098 47.321 25.1188 47.308 25.1288 47.296C26.7761 45.2007 28.4238 43.1063 30.0718 41.013C30.1138 40.96 30.1355 40.8936 30.1328 40.826C30.1328 35.4707 30.1328 30.1157 30.1328 24.761C30.1328 24.729 30.1538 24.686 30.0998 24.661L29.9998 24.736C28.9331 25.5987 27.8665 26.4603 26.7998 27.321C26.7561 27.3521 26.721 27.3939 26.6981 27.4424C26.6751 27.4909 26.6651 27.5445 26.6688 27.598C26.6688 30.0553 26.6688 32.512 26.6688 34.968V42.337C26.6752 42.3728 26.6745 42.4096 26.6666 42.4451C26.6587 42.4806 26.6438 42.5143 26.6228 42.544C26.1118 43.138 25.6048 43.734 25.0918 44.335C25.0508 44.291 25.0158 44.253 24.9828 44.214C24.5288 43.682 24.0778 43.148 23.6198 42.619C23.5422 42.5351 23.5006 42.4242 23.5038 42.31C23.5038 36.31 23.5038 30.3133 23.5038 24.32C23.5038 24.262 23.5038 24.204 23.5038 24.146C23.5488 24.173 23.5958 24.196 23.6378 24.226C24.0798 24.547 24.5218 24.867 24.9598 25.194C24.9756 25.2102 24.9945 25.223 25.0154 25.2318C25.0363 25.2406 25.0587 25.2451 25.0813 25.2451C25.1039 25.2451 25.1263 25.2406 25.1472 25.2318C25.1681 25.223 25.187 25.2102 25.2028 25.194C26.2695 24.41 27.3361 23.629 28.4028 22.851C29.3361 22.1697 30.2695 21.4897 31.2028 20.811C31.2028 20.879 31.2088 20.947 31.2088 21.011C31.2088 27.1177 31.2088 33.2243 31.2088 39.331C31.1966 39.3914 31.204 39.4541 31.2298 39.51C31.2668 39.464 31.2968 39.428 31.3298 39.391C34.6038 35.2263 37.8788 31.0627 41.1548 26.9C41.2534 26.7792 41.3049 26.6268 41.2998 26.471C41.2958 22.1903 41.2958 17.9093 41.2998 13.628C41.2998 13.56 41.3068 13.492 41.3098 13.428L42.3928 12.665Z" fill="#010101"/>
<path d="M42.3928 12.665L41.3198 13.433C41.3198 13.002 41.3108 12.571 41.3088 12.141C41.3068 11.711 41.3088 11.279 41.3088 10.848C41.3088 10.735 41.2808 10.716 41.1888 10.781C41.0968 10.846 41.0298 10.881 40.9498 10.933L36.3628 13.815C36.3038 13.852 36.2408 13.877 36.2418 13.975C36.2478 15.027 36.2488 16.075 36.2508 17.129L34.6928 18.265C34.6928 18.229 34.6838 18.192 34.6838 18.156C34.6838 14.1887 34.6838 10.222 34.6838 6.256C34.6776 6.21318 34.6882 6.16962 34.7134 6.13441C34.7385 6.09921 34.7763 6.07506 34.8188 6.067C35.7738 5.719 36.7278 5.367 37.6818 5.012C37.8478 4.951 37.8488 4.951 37.8488 5.128V10.453C37.8998 10.428 37.9238 10.418 37.9488 10.406C39.0348 9.81133 40.1215 9.21733 41.2088 8.624C41.3088 8.569 41.3088 8.496 41.3088 8.405C41.3088 6.437 41.3088 4.47033 41.3088 2.505C41.3088 2.311 41.3088 2.31 41.1308 2.357C37.8875 3.22367 34.6441 4.09033 31.4008 4.957C31.2578 4.995 31.2168 5.049 31.2168 5.197C31.2221 10.3417 31.2221 15.4863 31.2168 20.631C31.2168 20.694 31.2168 20.757 31.2108 20.82C30.2775 21.5 29.3441 22.18 28.4108 22.86C27.3441 23.6393 26.2775 24.4203 25.2108 25.203C25.195 25.2192 25.1761 25.232 25.1552 25.2408C25.1343 25.2496 25.1119 25.2541 25.0893 25.2541C25.0667 25.2541 25.0443 25.2496 25.0234 25.2408C25.0025 25.232 24.9836 25.2192 24.9678 25.203C24.5298 24.876 24.0878 24.556 23.6458 24.235C23.6038 24.205 23.5568 24.182 23.5118 24.156C23.5118 24.109 23.5118 24.061 23.5118 24.014C23.5118 20.0373 23.5118 16.0603 23.5118 12.083C23.5118 11.131 23.5118 10.183 23.5118 9.226C23.5118 9.112 23.5278 9.08 23.6488 9.126C24.0148 9.268 24.3928 9.384 24.7488 9.538C24.8562 9.58862 24.9735 9.61486 25.0923 9.61486C25.2111 9.61486 25.3284 9.58862 25.4358 9.538C25.8358 9.369 26.2468 9.238 26.6758 9.077V16.591C26.6958 16.585 26.7155 16.578 26.7348 16.57C27.8395 15.964 28.9445 15.359 30.0498 14.755C30.1338 14.709 30.1328 14.647 30.1328 14.573C30.1328 11.537 30.1328 8.50167 30.1328 5.467C30.1328 5.346 30.1208 5.302 29.9798 5.34C28.4078 5.762 26.8308 6.18 25.2558 6.6C25.1456 6.63101 25.029 6.63101 24.9188 6.6C23.3641 6.18133 21.8088 5.765 20.2528 5.351C20.0528 5.297 20.0528 5.298 20.0528 5.503V21.379C20.0528 21.447 20.0528 21.516 20.0458 21.584L19.0958 20.905L18.9678 20.816C18.9678 20.753 18.9618 20.69 18.9618 20.627C18.9618 15.4817 18.9618 10.337 18.9618 5.193C18.9618 5.056 18.9338 5 18.7898 4.962C15.5458 4.09533 12.3028 3.22867 9.0608 2.362C8.8748 2.312 8.8748 2.312 8.8748 2.501V13.245C8.8748 13.308 8.8678 13.37 8.8638 13.433C8.5448 13.202 8.2258 12.97 7.9068 12.74C7.8698 12.713 7.8398 12.67 7.7858 12.674V0.900002C8.2098 1.008 8.6348 1.113 9.0578 1.226C12.1978 2.064 15.3371 2.903 18.4758 3.743C20.6471 4.323 22.8195 4.90367 24.9928 5.485C25.0621 5.505 25.1356 5.505 25.2048 5.485C29.0941 4.44367 32.9838 3.40367 36.8738 2.365C38.6738 1.885 40.4738 1.40533 42.2738 0.926002C42.3878 0.895002 42.4038 0.914002 42.4038 1.026C42.4038 4.89267 42.4038 8.75934 42.4038 12.626C42.4008 12.6392 42.3971 12.6522 42.3928 12.665Z" fill="#DC1212"/>
<path d="M20.0428 21.584C20.0428 21.516 20.0498 21.447 20.0498 21.379V5.5C20.0498 5.295 20.0498 5.294 20.2498 5.348C21.8071 5.766 23.3635 6.18334 24.9188 6.6C25.029 6.63101 25.1456 6.63101 25.2558 6.6C26.8308 6.176 28.4078 5.758 29.9828 5.331C30.1238 5.293 30.1358 5.337 30.1358 5.458C30.1358 8.49334 30.1358 11.5287 30.1358 14.564C30.1358 14.638 30.1358 14.7 30.0528 14.746C28.9468 15.346 27.8418 15.951 26.7378 16.561C26.7185 16.569 26.6988 16.576 26.6788 16.582V9.072C26.2498 9.229 25.8368 9.364 25.4388 9.533C25.3314 9.58362 25.2141 9.60986 25.0953 9.60986C24.9765 9.60986 24.8592 9.58362 24.7518 9.533C24.3908 9.379 24.0128 9.263 23.6518 9.121C23.5308 9.074 23.5148 9.106 23.5148 9.221C23.5148 10.174 23.5148 11.126 23.5148 12.078C23.5148 16.0553 23.5148 20.0323 23.5148 24.009C23.5148 24.056 23.5148 24.104 23.5148 24.151C23.5148 24.198 23.5148 24.266 23.5148 24.324C23.5148 30.32 23.5148 36.3167 23.5148 42.314C23.5116 42.4282 23.5532 42.5391 23.6308 42.623C24.0888 43.152 24.5398 43.686 24.9938 44.218C25.0268 44.257 25.0618 44.295 25.1028 44.339C25.6158 43.739 26.1228 43.139 26.6338 42.548C26.6548 42.5183 26.6697 42.4846 26.6776 42.4491C26.6855 42.4136 26.6862 42.3768 26.6798 42.341V34.972C26.6798 32.5147 26.6798 30.058 26.6798 27.602C26.6761 27.5485 26.6861 27.4949 26.7091 27.4464C26.732 27.3979 26.7671 27.3561 26.8108 27.325C27.8775 26.4663 28.9441 25.6047 30.0108 24.74L30.1108 24.665C30.1648 24.686 30.1438 24.729 30.1438 24.765C30.1438 30.1203 30.1438 35.4753 30.1438 40.83C30.1465 40.8976 30.1248 40.964 30.0828 41.017C28.4281 43.1083 26.7775 45.2027 25.1308 47.3C25.1208 47.312 25.1118 47.325 25.0948 47.35L24.0858 46.068C22.7771 44.4013 21.4678 42.7367 20.1578 41.074C20.0842 40.9862 20.045 40.8746 20.0478 40.76C20.0478 34.438 20.0478 28.1153 20.0478 21.792C20.0498 21.72 20.0448 21.652 20.0428 21.584Z" fill="#FEFEFE"/>
<path d="M8.8638 13.433C8.8638 13.37 8.8748 13.308 8.8748 13.245V2.5C8.8748 2.311 8.8748 2.311 9.0608 2.361C12.3035 3.22767 15.5465 4.09433 18.7898 4.961C18.9338 4.999 18.9618 5.055 18.9618 5.192C18.9578 10.3367 18.9578 15.4813 18.9618 20.626C18.9618 20.689 18.9618 20.752 18.9678 20.815C18.9738 20.878 18.9618 20.951 18.9618 21.02V39.533C18.8738 39.425 18.8088 39.347 18.7468 39.267C17.7028 37.941 16.6588 36.6157 15.6148 35.291C15.5355 35.195 15.4936 35.0735 15.4968 34.949C15.4968 29.4517 15.4988 23.9547 15.5028 18.458C15.5067 18.4022 15.4952 18.3465 15.4697 18.2968C15.4441 18.247 15.4054 18.2053 15.3578 18.176C14.3958 17.48 13.4365 16.78 12.4798 16.076C12.4398 16.047 12.4068 16.001 12.3398 15.999V31.074C12.2778 31.063 12.2598 31.017 12.2338 30.984C11.1398 29.6013 10.0495 28.218 8.9628 26.834C8.90001 26.7573 8.86794 26.66 8.8728 26.561C8.8728 22.253 8.8728 17.945 8.8728 13.637C8.8738 13.569 8.8678 13.5 8.8638 13.433ZM15.4928 14.863C15.4928 14.804 15.4988 14.773 15.4988 14.741C15.4988 11.911 15.4988 9.08067 15.4988 6.25C15.5035 6.20964 15.4927 6.16899 15.4686 6.1363C15.4444 6.10362 15.4088 6.08134 15.3688 6.074C14.4038 5.722 13.4398 5.364 12.4748 5.01C12.4338 4.995 12.3918 4.958 12.3378 4.986C12.3378 5.011 12.3378 5.037 12.3378 5.063C12.3378 7.62967 12.3378 10.1963 12.3378 12.763C12.3365 12.801 12.3461 12.8386 12.3654 12.8714C12.3847 12.9041 12.4129 12.9307 12.4468 12.948C13.1135 13.362 13.7765 13.7777 14.4358 14.195L15.4928 14.863Z" fill="#FEFEFE"/>
<path d="M36.2518 17.129C36.2518 16.078 36.2518 15.029 36.2428 13.975C36.2428 13.875 36.3048 13.852 36.3638 13.815L40.9508 10.933C41.0308 10.883 41.1128 10.833 41.1898 10.781C41.2668 10.729 41.3108 10.735 41.3098 10.848C41.3098 11.2793 41.3098 11.7103 41.3098 12.141C41.3098 12.571 41.3168 13.002 41.3208 13.433C41.3208 13.501 41.3108 13.569 41.3108 13.633C41.3108 17.9143 41.3108 22.1953 41.3108 26.476C41.3159 26.6318 41.2644 26.7842 41.1658 26.905C37.8891 31.0697 34.6148 35.2347 31.3428 39.4C31.3138 39.437 31.2838 39.473 31.2428 39.519C31.217 39.4631 31.2096 39.4004 31.2218 39.34C31.2218 33.2327 31.2218 27.126 31.2218 21.02C31.2218 20.952 31.2218 20.884 31.2158 20.82C31.2098 20.756 31.2218 20.694 31.2218 20.631C31.2218 15.487 31.2218 10.3423 31.2218 5.197C31.2218 5.049 31.2628 4.997 31.4058 4.957C34.6498 4.095 37.8931 3.22833 41.1358 2.357C41.3138 2.31 41.3148 2.311 41.3138 2.505C41.3138 4.47233 41.3138 6.439 41.3138 8.405C41.3138 8.496 41.3138 8.569 41.2138 8.624C40.1258 9.21467 39.0391 9.80867 37.9538 10.406C37.9318 10.418 37.9078 10.428 37.8538 10.453V5.129C37.8538 4.952 37.8538 4.952 37.6868 5.013C36.7328 5.366 35.7788 5.72 34.8238 6.068C34.7813 6.07606 34.7435 6.1002 34.7184 6.13541C34.6932 6.17062 34.6826 6.21417 34.6888 6.257C34.6888 10.223 34.6888 14.1897 34.6888 18.157C34.6888 18.193 34.6948 18.23 34.6978 18.266C34.6928 18.3025 34.6898 18.3392 34.6888 18.376C34.6888 23.2373 34.6888 28.098 34.6888 32.958C34.6888 32.995 34.6658 33.043 34.7208 33.071C34.7588 33.028 34.7968 32.986 34.8338 32.942C35.7898 31.8227 36.7468 30.704 37.7048 29.586C37.8061 29.4749 37.8593 29.3282 37.8528 29.178C37.8528 24.8447 37.8528 20.5113 37.8528 16.178V15.987C37.7928 16.027 37.7528 16.054 37.7098 16.087L36.2518 17.129Z" fill="#FEFEFE"/>
<path d="M36.2518 17.129L37.7068 16.078C37.7468 16.049 37.7898 16.022 37.8498 15.978V16.169C37.8498 20.5023 37.8498 24.8357 37.8498 29.169C37.8563 29.3192 37.8031 29.4659 37.7018 29.577C36.7405 30.6917 35.7835 31.8103 34.8308 32.933C34.7938 32.977 34.7558 33.019 34.7178 33.062C34.6628 33.034 34.6858 32.986 34.6858 32.949C34.6858 28.0877 34.6858 23.227 34.6858 18.367C34.6868 18.3302 34.6898 18.2935 34.6948 18.257L36.2518 17.129Z" fill="#010101"/>
<path d="M15.4928 14.863L14.4298 14.2C13.7678 13.784 13.1048 13.3683 12.4408 12.953C12.4069 12.9357 12.3787 12.9091 12.3594 12.8764C12.3401 12.8436 12.3305 12.806 12.3318 12.768C12.3318 10.2 12.3318 7.63333 12.3318 5.068C12.3318 5.042 12.3318 5.016 12.3318 4.991C12.3858 4.963 12.4318 5 12.4688 5.015C13.4338 5.369 14.3978 5.727 15.3628 6.079C15.4028 6.08634 15.4384 6.10862 15.4626 6.1413C15.4867 6.17399 15.4975 6.21464 15.4928 6.255C15.4928 9.08633 15.4928 11.9167 15.4928 14.746C15.4928 14.773 15.4928 14.8 15.4928 14.863Z" fill="#DC1212"/>
</svg>
