<svg width="71" height="44" viewBox="0 0 71 44" fill="none" xmlns="http://www.w3.org/2000/svg">
<path fill-rule="evenodd" clip-rule="evenodd" d="M35.1953 10.5558V34.108L12.882 11.7823L24.6519 0L35.1953 10.5558Z" fill="#1F150A"/>
<path d="M34.1298 31.4938L14.4059 11.7823L24.6519 1.5239L34.1298 11.0018V31.4938Z" fill="#F4CF16"/>
<path fill-rule="evenodd" clip-rule="evenodd" d="M11.8785 13.0832L12.4236 13.6407L34.0926 35.2973H12.213L0.93866 24.023L11.8785 13.0832Z" fill="#1F150A"/>
<path d="M31.5033 34.2195H12.6714L2.46255 24.0106L11.8785 14.6071L31.5033 34.2195Z" fill="#F4CF16"/>
<path fill-rule="evenodd" clip-rule="evenodd" d="M36.6696 10.5558V34.108L58.9953 11.7823L47.213 0L36.6696 10.5558Z" fill="#1F150A"/>
<path d="M37.7475 31.4938V11.0018L47.213 1.5239L57.4714 11.7823L37.7475 31.4938Z" fill="#F4CF16"/>
<path fill-rule="evenodd" clip-rule="evenodd" d="M37.7599 35.2973H59.6643L70.9387 24.023L60.544 13.6407L59.9988 13.0832L59.4413 13.6407L37.7599 35.2973Z" fill="#1F150A"/>
<path d="M59.2059 34.2195H40.3741L59.9989 14.6071L69.4148 24.0106L59.2059 34.2195Z" fill="#F4CF16"/>
<path fill-rule="evenodd" clip-rule="evenodd" d="M10.6024 38.7416H11.3705C11.6927 38.7416 11.9157 38.7912 12.0396 38.9027C12.1511 39.0018 12.213 39.1381 12.213 39.3363C12.213 39.4726 12.1634 39.5717 12.1015 39.6708C12.0272 39.7699 11.928 39.8319 11.8042 39.8566C11.5811 39.9062 11.4077 39.931 11.3334 39.931H10.59V38.7416H10.6024ZM10.6024 43.4496V41.0584H10.7511C10.9121 41.0584 11.0608 41.108 11.1847 41.1947C11.2714 41.269 11.3829 41.4177 11.4944 41.6531L12.436 43.4619H14.4431L13.5882 41.7522C13.5387 41.6655 13.4643 41.5416 13.3404 41.3805C13.2165 41.2195 13.1174 41.1204 13.0555 41.0708C12.9564 40.9965 12.8077 40.9221 12.5971 40.8478C12.8573 40.7858 13.0679 40.7115 13.2165 40.6124C13.4519 40.4761 13.6378 40.2779 13.7741 40.0301C13.9104 39.7947 13.9847 39.5221 13.9847 39.1876C13.9847 38.8159 13.898 38.5062 13.7245 38.246C13.5387 37.9858 13.3157 37.8 13.0183 37.7133C12.7334 37.6142 12.3121 37.5646 11.767 37.5646H8.81832V43.4619H10.6024V43.4496ZM15.3599 43.4496H17.1316V37.5522H15.3599V43.4496ZM22.0997 41.9009C21.9263 42.0991 21.6661 42.1982 21.3316 42.1982C20.9847 42.1982 20.7121 42.0619 20.5139 41.8265C20.3281 41.5912 20.2289 41.1451 20.2289 40.4885C20.2289 39.9558 20.3033 39.5717 20.4643 39.3239C20.6873 38.9894 20.9847 38.8283 21.3935 38.8283C21.567 38.8283 21.7281 38.8779 21.8767 38.9398C22.013 39.0142 22.1369 39.1257 22.236 39.2619C22.298 39.3487 22.3599 39.485 22.4095 39.6584L23.9705 39.2991C23.7599 38.6796 23.4626 38.2212 23.0413 37.9115C22.6325 37.6142 22.0626 37.4655 21.344 37.4655C20.4148 37.4655 19.7086 37.7257 19.2006 38.246C18.705 38.7664 18.4449 39.5221 18.4449 40.5009C18.4449 41.2319 18.5811 41.8265 18.8661 42.2973C19.1634 42.7681 19.498 43.0903 19.8944 43.2761C20.2909 43.4743 20.7988 43.5611 21.4183 43.5611C21.9263 43.5611 22.3599 43.4867 22.6944 43.3381C23.0165 43.1894 23.3015 42.954 23.5369 42.669C23.7599 42.3593 23.921 42 24.0325 41.554L22.4714 41.0584C22.3971 41.4177 22.2732 41.7027 22.0997 41.9009ZM25.2219 43.4496H26.9935V37.5522H25.2219V43.4496ZM32.259 41.1575C32.259 41.4796 32.1723 41.7398 31.9988 41.9133C31.8254 42.0991 31.59 42.1858 31.2803 42.1858C30.9705 42.1858 30.7351 42.0867 30.5617 41.9133C30.3882 41.7274 30.3015 41.4796 30.3015 41.1575V37.5522H28.5422V41.0708C28.5422 41.3681 28.5918 41.6903 28.7033 42.0619C28.7652 42.2973 28.9015 42.5327 29.0873 42.7434C29.2732 42.9664 29.4714 43.1398 29.6944 43.2513C29.9174 43.3752 30.19 43.4496 30.5245 43.4867C30.8466 43.5239 31.1564 43.5363 31.4289 43.5363C31.9245 43.5363 32.3334 43.4743 32.6679 43.3381C32.9157 43.2389 33.1634 43.0779 33.3741 42.8425C33.5971 42.6195 33.7705 42.3469 33.8696 42.0372C33.9811 41.7274 34.0183 41.3929 34.0183 41.046V37.5274H32.2714V41.1575H32.259ZM35.4307 43.4496H36.8803V38.9522L37.9953 43.4496H39.2962L40.4112 38.9522V43.4496H41.8608V37.5522H39.5316L38.6396 41.1451L37.7475 37.5522H35.4183V43.4496H35.4307ZM45.1688 41.1947L45.7882 39.0761L46.4325 41.1947H45.1688ZM47.0643 43.4496H48.9227L46.7794 37.5522H44.8466L42.6909 43.4496H44.4997L44.7723 42.4708H46.7918L47.0643 43.4496ZM52.6891 43.4496H57.521V42.1115H54.4608V40.9469H57.2112V39.7451H54.4608V38.8035H57.4342V37.5398H52.6891V43.4496ZM58.6732 43.4496H60.3086V41.8018H58.6732V43.4496ZM65.1033 41.9009C64.9298 42.0991 64.682 42.1982 64.3475 42.1982C64.0006 42.1982 63.7281 42.0619 63.5298 41.8265C63.3316 41.5912 63.2325 41.1451 63.2325 40.4885C63.2325 39.9558 63.3192 39.5717 63.4803 39.3239C63.6909 38.9894 64.0006 38.8283 64.3971 38.8283C64.5829 38.8283 64.7316 38.8779 64.8927 38.9398C65.0289 39.0142 65.1528 39.1257 65.2519 39.2619C65.3015 39.3487 65.3758 39.485 65.4254 39.6584L66.9865 39.2991C66.7882 38.6796 66.4909 38.2212 66.0696 37.9115C65.6608 37.6142 65.0909 37.4655 64.3599 37.4655C63.4431 37.4655 62.7245 37.7257 62.2289 38.246C61.7334 38.7664 61.4732 39.5221 61.4732 40.5009C61.4732 41.2319 61.6219 41.8265 61.9068 42.2973C62.1918 42.7681 62.5387 43.0903 62.9351 43.2761C63.3316 43.4743 63.8396 43.5611 64.459 43.5611C64.967 43.5611 65.4006 43.4867 65.7227 43.3381C66.0573 43.1894 66.3298 42.954 66.5652 42.669C66.7882 42.3593 66.9617 42 67.0608 41.554L65.5121 41.0584C65.4006 41.4177 65.2767 41.7027 65.1033 41.9009ZM68.1882 43.4496H69.8236V41.8018H68.1882V43.4496ZM30.6608 37.2301H31.2927L32.6431 36.0159H31.2555L30.6608 37.2301ZM5.73336 41.9009C5.5723 42.0991 5.31212 42.1982 4.97761 42.1982C4.6307 42.1982 4.35814 42.0619 4.15991 41.8265C3.97407 41.5912 3.87495 41.1451 3.87495 40.4885C3.87495 39.9558 3.94929 39.5717 4.11035 39.3239C4.33336 38.9894 4.6307 38.8283 5.03955 38.8283C5.21301 38.8283 5.37407 38.8779 5.52274 38.9398C5.65902 39.0142 5.78292 39.1257 5.88203 39.2619C5.94398 39.3487 6.00593 39.485 6.05548 39.6584L7.61655 39.2991C7.40593 38.6796 7.10858 38.2212 6.68734 37.9115C6.27849 37.6142 5.70858 37.4655 4.99 37.4655C4.06079 37.4655 3.3546 37.7257 2.84663 38.246C2.35106 38.7664 2.09088 39.5221 2.09088 40.5009C2.09088 41.2319 2.22716 41.8265 2.51212 42.2973C2.80947 42.7681 3.14398 43.0903 3.54044 43.2761C3.9369 43.4743 4.44486 43.5611 5.06433 43.5611C5.5723 43.5611 6.00593 43.4867 6.34044 43.3381C6.66256 43.1894 6.94752 42.954 7.17053 42.669C7.39354 42.3593 7.56699 42 7.6661 41.554L6.10504 41.0584C6.04309 41.4177 5.90681 41.7027 5.73336 41.9009Z" fill="#1F150A"/>
</svg>
